<mxfile host="app.diagrams.net" modified="2021-04-12T07:38:39.545Z" agent="5.0 (Windows NT 10.0; Win64; x64) AppleWebKit/537.36 (KHTML, like Gecko) Chrome/89.0.4389.114 Safari/537.36" etag="52VHqVYx7C6kTtGmSEsn" version="14.5.3" type="github">
  <diagram id="pgjfPtd_N-Q7YQV_Cls3" name="Page-1">
    <mxGraphModel dx="761" dy="625" grid="1" gridSize="10" guides="1" tooltips="1" connect="1" arrows="1" fold="1" page="1" pageScale="1" pageWidth="827" pageHeight="1169" math="0" shadow="0">
      <root>
        <mxCell id="0" />
        <mxCell id="1" parent="0" />
        <mxCell id="qzD0Zgsz6VDoNQyBi3dr-2" value="User" style="shape=umlFrame;whiteSpace=wrap;html=1;rounded=1;" parent="1" vertex="1">
          <mxGeometry x="40" y="50" width="300" height="510" as="geometry" />
        </mxCell>
        <mxCell id="qzD0Zgsz6VDoNQyBi3dr-39" value="Clicks button" style="shape=rhombus;perimeter=rhombusPerimeter;whiteSpace=wrap;html=1;align=center;rounded=0;fillColor=#fff2cc;strokeColor=#EA6B66;" parent="1" vertex="1">
          <mxGeometry x="80" y="300" width="120" height="60" as="geometry" />
        </mxCell>
        <mxCell id="qzD0Zgsz6VDoNQyBi3dr-3" value="System" style="shape=umlFrame;whiteSpace=wrap;html=1;rounded=1;" parent="1" vertex="1">
          <mxGeometry x="360" y="50" width="300" height="510" as="geometry" />
        </mxCell>
        <mxCell id="qzD0Zgsz6VDoNQyBi3dr-10" style="edgeStyle=orthogonalEdgeStyle;rounded=0;orthogonalLoop=1;jettySize=auto;html=1;entryX=0;entryY=0.5;entryDx=0;entryDy=0;" parent="1" source="qzD0Zgsz6VDoNQyBi3dr-1" target="qzD0Zgsz6VDoNQyBi3dr-14" edge="1">
          <mxGeometry relative="1" as="geometry">
            <mxPoint x="390" y="180" as="targetPoint" />
          </mxGeometry>
        </mxCell>
        <mxCell id="qzD0Zgsz6VDoNQyBi3dr-1" value="Clicks on event in dashboard" style="rounded=1;whiteSpace=wrap;html=1;arcSize=50;fillColor=#fff2cc;strokeColor=#EA6B66;" parent="1" vertex="1">
          <mxGeometry x="80" y="160" width="120" height="40" as="geometry" />
        </mxCell>
        <mxCell id="qzD0Zgsz6VDoNQyBi3dr-4" value="UI" style="shape=umlFrame;whiteSpace=wrap;html=1;rounded=1;" parent="1" vertex="1">
          <mxGeometry x="680" y="50" width="300" height="510" as="geometry" />
        </mxCell>
        <mxCell id="qzD0Zgsz6VDoNQyBi3dr-9" style="edgeStyle=orthogonalEdgeStyle;rounded=0;orthogonalLoop=1;jettySize=auto;html=1;" parent="1" source="qzD0Zgsz6VDoNQyBi3dr-5" target="qzD0Zgsz6VDoNQyBi3dr-1" edge="1">
          <mxGeometry relative="1" as="geometry" />
        </mxCell>
        <mxCell id="qzD0Zgsz6VDoNQyBi3dr-5" value="" style="ellipse;html=1;shape=endState;fillColor=#000000;strokeColor=#ff0000;rounded=1;" parent="1" vertex="1">
          <mxGeometry x="125" y="90" width="30" height="30" as="geometry" />
        </mxCell>
        <mxCell id="qzD0Zgsz6VDoNQyBi3dr-18" style="edgeStyle=orthogonalEdgeStyle;rounded=0;orthogonalLoop=1;jettySize=auto;html=1;" parent="1" source="qzD0Zgsz6VDoNQyBi3dr-14" target="qzD0Zgsz6VDoNQyBi3dr-17" edge="1">
          <mxGeometry relative="1" as="geometry" />
        </mxCell>
        <mxCell id="qzD0Zgsz6VDoNQyBi3dr-14" value="Get event" style="rounded=1;whiteSpace=wrap;html=1;arcSize=50;fillColor=#fff2cc;strokeColor=#EA6B66;" parent="1" vertex="1">
          <mxGeometry x="460" y="160" width="90" height="40" as="geometry" />
        </mxCell>
        <mxCell id="_NpwWm2EqtdT0M7iOZBC-1" style="edgeStyle=orthogonalEdgeStyle;rounded=0;orthogonalLoop=1;jettySize=auto;html=1;" parent="1" source="qzD0Zgsz6VDoNQyBi3dr-17" target="qzD0Zgsz6VDoNQyBi3dr-39" edge="1">
          <mxGeometry relative="1" as="geometry">
            <Array as="points">
              <mxPoint x="830" y="250" />
              <mxPoint x="140" y="250" />
            </Array>
          </mxGeometry>
        </mxCell>
        <mxCell id="qzD0Zgsz6VDoNQyBi3dr-17" value="Shows event with filled details&amp;nbsp;" style="rounded=1;whiteSpace=wrap;html=1;arcSize=50;fillColor=#fff2cc;strokeColor=#EA6B66;" parent="1" vertex="1">
          <mxGeometry x="770" y="160" width="120" height="40" as="geometry" />
        </mxCell>
        <mxCell id="qzD0Zgsz6VDoNQyBi3dr-54" style="edgeStyle=orthogonalEdgeStyle;rounded=0;orthogonalLoop=1;jettySize=auto;html=1;" parent="1" source="qzD0Zgsz6VDoNQyBi3dr-34" target="qzD0Zgsz6VDoNQyBi3dr-47" edge="1">
          <mxGeometry relative="1" as="geometry" />
        </mxCell>
        <mxCell id="qzD0Zgsz6VDoNQyBi3dr-34" value="Show dashboard" style="rounded=1;whiteSpace=wrap;html=1;arcSize=50;fillColor=#fff2cc;strokeColor=#EA6B66;" parent="1" vertex="1">
          <mxGeometry x="770" y="310" width="120" height="40" as="geometry" />
        </mxCell>
        <mxCell id="qzD0Zgsz6VDoNQyBi3dr-44" style="edgeStyle=orthogonalEdgeStyle;rounded=0;orthogonalLoop=1;jettySize=auto;html=1;entryX=0;entryY=0.5;entryDx=0;entryDy=0;exitX=1;exitY=0.5;exitDx=0;exitDy=0;" parent="1" source="qzD0Zgsz6VDoNQyBi3dr-39" target="qzD0Zgsz6VDoNQyBi3dr-43" edge="1">
          <mxGeometry relative="1" as="geometry">
            <Array as="points" />
          </mxGeometry>
        </mxCell>
        <mxCell id="qzD0Zgsz6VDoNQyBi3dr-50" value="back button" style="edgeLabel;html=1;align=center;verticalAlign=middle;resizable=0;points=[];" parent="qzD0Zgsz6VDoNQyBi3dr-44" vertex="1" connectable="0">
          <mxGeometry x="-0.8937" relative="1" as="geometry">
            <mxPoint x="49" as="offset" />
          </mxGeometry>
        </mxCell>
        <mxCell id="_NpwWm2EqtdT0M7iOZBC-2" style="edgeStyle=orthogonalEdgeStyle;rounded=0;orthogonalLoop=1;jettySize=auto;html=1;" parent="1" source="qzD0Zgsz6VDoNQyBi3dr-43" target="qzD0Zgsz6VDoNQyBi3dr-34" edge="1">
          <mxGeometry relative="1" as="geometry" />
        </mxCell>
        <mxCell id="qzD0Zgsz6VDoNQyBi3dr-43" value="Close detailview" style="rounded=1;whiteSpace=wrap;html=1;arcSize=50;fillColor=#fff2cc;strokeColor=#EA6B66;" parent="1" vertex="1">
          <mxGeometry x="450" y="310" width="120" height="40" as="geometry" />
        </mxCell>
        <mxCell id="qzD0Zgsz6VDoNQyBi3dr-47" value="" style="ellipse;html=1;shape=endState;fillColor=#000000;strokeColor=#ff0000;rounded=1;" parent="1" vertex="1">
          <mxGeometry x="920" y="315" width="30" height="30" as="geometry" />
        </mxCell>
      </root>
    </mxGraphModel>
  </diagram>
</mxfile>
